<?xml version="1.0" encoding="utf-8"?><svg xmlns="http://www.w3.org/2000/svg" xmlns:xlink="http://www.w3.org/1999/xlink"><symbol fill="none" viewBox="0 0 10 6" id="fi_chevron-down" xmlns="http://www.w3.org/2000/svg"><path d="M1 1l4 4 4-4" stroke="#111" stroke-linecap="round" stroke-linejoin="round"/></symbol><symbol fill="none" viewBox="0 0 16 16" id="fi_globe" xmlns="http://www.w3.org/2000/svg"><g clip-path="url(#bclip0_301_2223)" stroke="#111" stroke-width="1.6" stroke-linecap="round" stroke-linejoin="round"><path d="M8 14.667A6.667 6.667 0 108 1.333a6.667 6.667 0 000 13.334zM1.333 8h13.333"/><path d="M8 1.333A10.2 10.2 0 0110.666 8 10.2 10.2 0 018 14.667 10.2 10.2 0 015.333 8 10.2 10.2 0 018 1.333v0z"/></g><defs><clipPath id="bclip0_301_2223"><path fill="#fff" d="M0 0h16v16H0z"/></clipPath></defs></symbol><symbol fill="none" viewBox="0 0 16 16" id="fi_heart" xmlns="http://www.w3.org/2000/svg"><path d="M13.893 3.073a3.667 3.667 0 00-5.187 0L8 3.78l-.707-.707A3.668 3.668 0 002.106 8.26l.707.707L8 14.153l5.186-5.186.707-.707a3.667 3.667 0 000-5.187v0z" stroke="#111" stroke-width="1.6" stroke-linecap="round" stroke-linejoin="round"/></symbol><symbol fill="none" viewBox="0 0 16 16" id="fi_log-in" xmlns="http://www.w3.org/2000/svg"><path d="M6.667 11.333L10 8 6.667 4.667M10 8H2M10 2h2.667A1.333 1.333 0 0114 3.333v9.334A1.334 1.334 0 0112.667 14H10" stroke="#111" stroke-width="1.6" stroke-linecap="round" stroke-linejoin="round"/></symbol><symbol fill="none" viewBox="0 0 15 15" id="fi_navigation" xmlns="http://www.w3.org/2000/svg"><path d="M1 7.333l12.667-6-6 12.667-1.334-5.333L1 7.333z" stroke="#111" stroke-linecap="round" stroke-linejoin="round"/></symbol><symbol fill="none" viewBox="0 0 16 16" id="fi_plus" xmlns="http://www.w3.org/2000/svg"><path d="M8 3.333v9.334M3.333 8h9.333" stroke="#C56622" stroke-width="1.6" stroke-linecap="round" stroke-linejoin="round"/></symbol></svg>